<?xml version="1.0" standalone="no"?>
<!DOCTYPE svg PUBLIC "-//W3C//DTD SVG 20010904//EN"
 "http://www.w3.org/TR/2001/REC-SVG-20010904/DTD/svg10.dtd">
<svg version="1.0" xmlns="http://www.w3.org/2000/svg"
 width="512.000000pt" height="512.000000pt" viewBox="0 0 512.000000 512.000000"
 preserveAspectRatio="xMidYMid meet">

<g transform="translate(0.000000,512.000000) scale(0.100000,-0.100000)"
fill="#000000" stroke="none">
<path d="M2789 4325 c-15 -8 -29 -21 -32 -29 -3 -8 -220 -752 -482 -1654 -510
-1758 -488 -1671 -433 -1705 28 -18 439 -137 471 -137 13 0 33 10 45 23 16 17
143 440 497 1660 261 900 475 1646 475 1656 0 47 -38 68 -225 121 -178 51
-284 80 -288 80 -1 -1 -14 -7 -28 -15z"/>
<path d="M1262 3453 c-75 -70 -171 -159 -212 -198 -41 -39 -116 -109 -165
-156 -217 -203 -404 -378 -459 -429 -68 -64 -82 -92 -65 -129 6 -14 88 -98
183 -186 94 -87 239 -223 321 -300 430 -404 520 -488 542 -496 38 -14 70 0
116 50 23 26 97 107 165 179 106 114 122 136 122 165 0 18 -6 40 -12 49 -7 9
-148 134 -313 278 -165 145 -306 268 -313 275 -11 10 44 64 306 294 176 154
323 288 326 297 20 53 10 68 -165 253 -218 231 -191 227 -377 54z"/>
<path d="M3533 3443 c-193 -205 -213 -229 -213 -265 0 -37 -23 -14 364 -353
156 -137 285 -253 285 -256 1 -3 -101 -95 -226 -205 -419 -367 -423 -371 -423
-409 0 -36 15 -54 247 -297 93 -98 114 -112 150 -103 13 3 126 101 251 218
124 117 354 332 511 479 157 147 289 277 293 288 20 53 54 18 -632 661 -184
172 -351 328 -370 346 -26 25 -44 33 -71 33 -34 0 -46 -10 -166 -137z"/>
</g>
</svg>
